<svg width="248" height="19" viewBox="0 0 248 19" fill="none" xmlns="http://www.w3.org/2000/svg">
<path d="M7.62 6.4C7.56667 6.47333 7.51333 6.53 7.46 6.57C7.40667 6.61 7.33333 6.63 7.24 6.63C7.14 6.63 7.03 6.59 6.91 6.51C6.79 6.42333 6.64 6.33 6.46 6.23C6.28667 6.13 6.07 6.04 5.81 5.96C5.55667 5.87333 5.24333 5.83 4.87 5.83C4.37 5.83 3.93 5.92 3.55 6.1C3.17 6.27333 2.85 6.52667 2.59 6.86C2.33667 7.19333 2.14333 7.59667 2.01 8.07C1.88333 8.54333 1.82 9.07333 1.82 9.66C1.82 10.2733 1.89 10.82 2.03 11.3C2.17 11.7733 2.36667 12.1733 2.62 12.5C2.88 12.82 3.19 13.0667 3.55 13.24C3.91667 13.4067 4.32667 13.49 4.78 13.49C5.21333 13.49 5.57 13.44 5.85 13.34C6.13 13.2333 6.36 13.1167 6.54 12.99C6.72667 12.8633 6.88 12.75 7 12.65C7.12667 12.5433 7.25 12.49 7.37 12.49C7.51667 12.49 7.63 12.5467 7.71 12.66L8.21 13.31C7.99 13.5833 7.74 13.8167 7.46 14.01C7.18 14.2033 6.87667 14.3667 6.55 14.5C6.23 14.6267 5.89333 14.72 5.54 14.78C5.18667 14.84 4.82667 14.87 4.46 14.87C3.82667 14.87 3.23667 14.7533 2.69 14.52C2.15 14.2867 1.68 13.95 1.28 13.51C0.88 13.0633 0.566667 12.5167 0.34 11.87C0.113333 11.2233 0 10.4867 0 9.66C0 8.90667 0.103333 8.21 0.31 7.57C0.523333 6.93 0.83 6.38 1.23 5.92C1.63667 5.45333 2.13333 5.09 2.72 4.83C3.31333 4.57 3.99333 4.44 4.76 4.44C5.47333 4.44 6.1 4.55667 6.64 4.79C7.18667 5.01667 7.67 5.34 8.09 5.76L7.62 6.4Z" fill="#003E7C"/>
<path d="M11.9608 0V14.73H10.1808V0H11.9608Z" fill="#003E7C"/>
<path d="M19.1173 4.44C19.8573 4.44 20.524 4.56333 21.1173 4.81C21.7107 5.05667 22.2173 5.40667 22.6373 5.86C23.0573 6.31333 23.3773 6.86333 23.5973 7.51C23.824 8.15 23.9373 8.86667 23.9373 9.66C23.9373 10.46 23.824 11.18 23.5973 11.82C23.3773 12.46 23.0573 13.0067 22.6373 13.46C22.2173 13.9133 21.7107 14.2633 21.1173 14.51C20.524 14.75 19.8573 14.87 19.1173 14.87C18.3707 14.87 17.6973 14.75 17.0973 14.51C16.504 14.2633 15.9973 13.9133 15.5773 13.46C15.1573 13.0067 14.834 12.46 14.6073 11.82C14.3873 11.18 14.2773 10.46 14.2773 9.66C14.2773 8.86667 14.3873 8.15 14.6073 7.51C14.834 6.86333 15.1573 6.31333 15.5773 5.86C15.9973 5.40667 16.504 5.05667 17.0973 4.81C17.6973 4.56333 18.3707 4.44 19.1173 4.44ZM19.1173 13.48C20.1173 13.48 20.864 13.1467 21.3573 12.48C21.8507 11.8067 22.0973 10.87 22.0973 9.67C22.0973 8.46333 21.8507 7.52333 21.3573 6.85C20.864 6.17667 20.1173 5.84 19.1173 5.84C18.6107 5.84 18.1673 5.92667 17.7873 6.1C17.414 6.27333 17.1007 6.52333 16.8473 6.85C16.6007 7.17667 16.414 7.58 16.2873 8.06C16.1673 8.53333 16.1073 9.07 16.1073 9.67C16.1073 10.87 16.354 11.8067 16.8473 12.48C17.3473 13.1467 18.104 13.48 19.1173 13.48Z" fill="#003E7C"/>
<path d="M34.525 4.6V14.73H33.465C33.2117 14.73 33.0517 14.6067 32.985 14.36L32.845 13.27C32.405 13.7567 31.9117 14.15 31.365 14.45C30.8183 14.7433 30.1917 14.89 29.485 14.89C28.9317 14.89 28.4417 14.8 28.015 14.62C27.595 14.4333 27.2417 14.1733 26.955 13.84C26.6683 13.5067 26.4517 13.1033 26.305 12.63C26.165 12.1567 26.095 11.6333 26.095 11.06V4.6H27.875V11.06C27.875 11.8267 28.0483 12.42 28.395 12.84C28.7483 13.26 29.285 13.47 30.005 13.47C30.5317 13.47 31.0217 13.3467 31.475 13.1C31.935 12.8467 32.3583 12.5 32.745 12.06V4.6H34.525Z" fill="#003E7C"/>
<path d="M43.9473 7.01C43.614 6.56333 43.254 6.25333 42.8673 6.08C42.4807 5.9 42.0473 5.81 41.5673 5.81C40.6273 5.81 39.904 6.14667 39.3973 6.82C38.8907 7.49333 38.6373 8.45333 38.6373 9.7C38.6373 10.36 38.694 10.9267 38.8073 11.4C38.9207 11.8667 39.0873 12.2533 39.3073 12.56C39.5273 12.86 39.7973 13.08 40.1173 13.22C40.4373 13.36 40.8007 13.43 41.2073 13.43C41.794 13.43 42.304 13.2967 42.7373 13.03C43.1773 12.7633 43.5807 12.3867 43.9473 11.9V7.01ZM45.7273 0V14.73H44.6673C44.414 14.73 44.254 14.6067 44.1873 14.36L44.0273 13.13C43.594 13.65 43.1007 14.07 42.5473 14.39C41.994 14.71 41.354 14.87 40.6273 14.87C40.0473 14.87 39.5207 14.76 39.0473 14.54C38.574 14.3133 38.1707 13.9833 37.8373 13.55C37.504 13.1167 37.2473 12.5767 37.0673 11.93C36.8873 11.2833 36.7973 10.54 36.7973 9.7C36.7973 8.95333 36.8973 8.26 37.0973 7.62C37.2973 6.97333 37.584 6.41333 37.9573 5.94C38.3307 5.46667 38.7873 5.09667 39.3273 4.83C39.874 4.55667 40.4873 4.42 41.1673 4.42C41.7873 4.42 42.3173 4.52667 42.7573 4.74C43.204 4.94667 43.6007 5.23667 43.9473 5.61V0H45.7273Z" fill="#003E7C"/>
<path d="M51.6488 14.89C50.8488 14.89 50.2321 14.6667 49.7988 14.22C49.3721 13.7733 49.1587 13.13 49.1587 12.29V6.09H47.9388C47.8321 6.09 47.7421 6.06 47.6688 6C47.5954 5.93333 47.5588 5.83333 47.5588 5.7V4.99L49.2188 4.78L49.6287 1.65C49.6487 1.55 49.6921 1.47 49.7588 1.41C49.8321 1.34333 49.9254 1.31 50.0387 1.31H50.9388V4.8H53.8688V6.09H50.9388V12.17C50.9388 12.5967 51.0421 12.9133 51.2487 13.12C51.4554 13.3267 51.7221 13.43 52.0488 13.43C52.2354 13.43 52.3954 13.4067 52.5288 13.36C52.6688 13.3067 52.7888 13.25 52.8888 13.19C52.9888 13.13 53.0721 13.0767 53.1387 13.03C53.2121 12.9767 53.2754 12.95 53.3288 12.95C53.4221 12.95 53.5054 13.0067 53.5788 13.12L54.0988 13.97C53.7921 14.2567 53.4221 14.4833 52.9888 14.65C52.5554 14.81 52.1088 14.89 51.6488 14.89Z" fill="#003E7C"/>
<path d="M64.0367 4.6V14.73H62.9767C62.7234 14.73 62.5634 14.6067 62.4967 14.36L62.3567 13.27C61.9167 13.7567 61.4234 14.15 60.8767 14.45C60.3301 14.7433 59.7034 14.89 58.9967 14.89C58.4434 14.89 57.9534 14.8 57.5267 14.62C57.1067 14.4333 56.7534 14.1733 56.4667 13.84C56.1801 13.5067 55.9634 13.1033 55.8167 12.63C55.6767 12.1567 55.6067 11.6333 55.6067 11.06V4.6H57.3867V11.06C57.3867 11.8267 57.5601 12.42 57.9067 12.84C58.2601 13.26 58.7967 13.47 59.5167 13.47C60.0434 13.47 60.5334 13.3467 60.9867 13.1C61.4467 12.8467 61.8701 12.5 62.2567 12.06V4.6H64.0367Z" fill="#003E7C"/>
<path d="M68.5491 6.63C68.8691 5.93667 69.2624 5.39667 69.7291 5.01C70.1957 4.61667 70.7657 4.42 71.4391 4.42C71.6524 4.42 71.8557 4.44333 72.0491 4.49C72.2491 4.53667 72.4257 4.61 72.5791 4.71L72.4491 6.04C72.4091 6.20667 72.3091 6.29 72.1491 6.29C72.0557 6.29 71.9191 6.27 71.7391 6.23C71.5591 6.19 71.3557 6.17 71.1291 6.17C70.8091 6.17 70.5224 6.21667 70.2691 6.31C70.0224 6.40333 69.7991 6.54333 69.5991 6.73C69.4057 6.91 69.2291 7.13667 69.0691 7.41C68.9157 7.67667 68.7757 7.98333 68.6491 8.33V14.73H66.8591V4.6H67.8791C68.0724 4.6 68.2057 4.63667 68.2791 4.71C68.3524 4.78333 68.4024 4.91 68.4291 5.09L68.5491 6.63Z" fill="#003E7C"/>
<path d="M75.9342 12.29C76.2609 12.73 76.6176 13.04 77.0042 13.22C77.3976 13.4 77.8276 13.49 78.2942 13.49C79.2476 13.49 79.9776 13.1533 80.4842 12.48C80.9909 11.8067 81.2442 10.8033 81.2442 9.47C81.2442 8.23 81.0175 7.32 80.5642 6.74C80.1175 6.15333 79.4776 5.86 78.6442 5.86C78.0642 5.86 77.5576 5.99333 77.1242 6.26C76.6976 6.52667 76.3009 6.90333 75.9342 7.39V12.29ZM75.9342 6.06C76.3609 5.56667 76.8409 5.17333 77.3742 4.88C77.9142 4.58667 78.5342 4.44 79.2342 4.44C79.8276 4.44 80.3609 4.55333 80.8342 4.78C81.3142 5.00667 81.7209 5.33667 82.0542 5.77C82.3876 6.19667 82.6409 6.71667 82.8142 7.33C82.9942 7.94333 83.0842 8.63333 83.0842 9.4C83.0842 10.22 82.9842 10.9667 82.7842 11.64C82.5842 12.3133 82.2942 12.89 81.9142 13.37C81.5409 13.8433 81.0842 14.2133 80.5442 14.48C80.0042 14.74 79.3976 14.87 78.7242 14.87C78.0576 14.87 77.4942 14.7467 77.0342 14.5C76.5809 14.2467 76.1842 13.89 75.8442 13.43L75.7542 14.35C75.7009 14.6033 75.5476 14.73 75.2942 14.73H74.1442V0H75.9342V6.06Z" fill="#003E7C"/>
<path d="M87.2156 4.6V14.73H85.4356V4.6H87.2156ZM87.5956 1.42C87.5956 1.59333 87.559 1.75667 87.4856 1.91C87.419 2.05667 87.3256 2.19 87.2056 2.31C87.0923 2.42333 86.9556 2.51333 86.7956 2.58C86.6423 2.64667 86.479 2.68 86.3056 2.68C86.1323 2.68 85.969 2.64667 85.8156 2.58C85.669 2.51333 85.539 2.42333 85.4256 2.31C85.3123 2.19 85.2223 2.05667 85.1556 1.91C85.089 1.75667 85.0556 1.59333 85.0556 1.42C85.0556 1.24667 85.089 1.08333 85.1556 0.929999C85.2223 0.77 85.3123 0.633333 85.4256 0.519999C85.539 0.4 85.669 0.306667 85.8156 0.239999C85.969 0.173333 86.1323 0.139999 86.3056 0.139999C86.479 0.139999 86.6423 0.173333 86.7956 0.239999C86.9556 0.306667 87.0923 0.4 87.2056 0.519999C87.3256 0.633333 87.419 0.77 87.4856 0.929999C87.559 1.08333 87.5956 1.24667 87.5956 1.42Z" fill="#003E7C"/>
<path d="M91.8203 6.07C92.0403 5.82333 92.2736 5.6 92.5203 5.4C92.767 5.2 93.027 5.03 93.3003 4.89C93.5803 4.74333 93.8736 4.63333 94.1803 4.56C94.4936 4.48 94.8303 4.44 95.1903 4.44C95.7436 4.44 96.2303 4.53333 96.6503 4.72C97.077 4.9 97.4303 5.16 97.7103 5.5C97.997 5.83333 98.2136 6.23667 98.3603 6.71C98.507 7.18333 98.5803 7.70667 98.5803 8.28V14.73H96.7903V8.28C96.7903 7.51333 96.6136 6.92 96.2603 6.5C95.9136 6.07333 95.3836 5.86 94.6703 5.86C94.1436 5.86 93.6503 5.98667 93.1903 6.24C92.737 6.49333 92.317 6.83667 91.9303 7.27V14.73H90.1403V4.6H91.2103C91.4636 4.6 91.6203 4.72333 91.6803 4.97L91.8203 6.07Z" fill="#003E7C"/>
<path d="M108.073 8.56C108.073 8.14667 108.013 7.77 107.893 7.43C107.779 7.08333 107.609 6.78667 107.383 6.54C107.163 6.28667 106.893 6.09333 106.573 5.96C106.253 5.82 105.889 5.75 105.483 5.75C104.629 5.75 103.953 6 103.453 6.5C102.959 6.99333 102.653 7.68 102.533 8.56H108.073ZM109.513 13.31C109.293 13.5767 109.029 13.81 108.723 14.01C108.416 14.2033 108.086 14.3633 107.733 14.49C107.386 14.6167 107.026 14.71 106.653 14.77C106.279 14.8367 105.909 14.87 105.543 14.87C104.843 14.87 104.196 14.7533 103.603 14.52C103.016 14.28 102.506 13.9333 102.073 13.48C101.646 13.02 101.313 12.4533 101.073 11.78C100.833 11.1067 100.713 10.3333 100.713 9.46C100.713 8.75333 100.819 8.09333 101.033 7.48C101.253 6.86667 101.566 6.33667 101.973 5.89C102.379 5.43667 102.876 5.08333 103.463 4.83C104.049 4.57 104.709 4.44 105.443 4.44C106.049 4.44 106.609 4.54333 107.123 4.75C107.643 4.95 108.089 5.24333 108.463 5.63C108.843 6.01 109.139 6.48333 109.353 7.05C109.566 7.61 109.673 8.25 109.673 8.97C109.673 9.25 109.643 9.43667 109.583 9.53C109.523 9.62333 109.409 9.67 109.243 9.67H102.473C102.493 10.31 102.579 10.8667 102.733 11.34C102.893 11.8133 103.113 12.21 103.393 12.53C103.673 12.8433 104.006 13.08 104.393 13.24C104.779 13.3933 105.213 13.47 105.693 13.47C106.139 13.47 106.523 13.42 106.843 13.32C107.169 13.2133 107.449 13.1 107.683 12.98C107.916 12.86 108.109 12.75 108.263 12.65C108.423 12.5433 108.559 12.49 108.673 12.49C108.819 12.49 108.933 12.5467 109.013 12.66L109.513 13.31Z" fill="#003E7C"/>
<path d="M113.739 4.6V14.73H111.959V4.6H113.739ZM114.119 1.42C114.119 1.59333 114.082 1.75667 114.009 1.91C113.942 2.05667 113.849 2.19 113.729 2.31C113.616 2.42333 113.479 2.51333 113.319 2.58C113.166 2.64667 113.002 2.68 112.829 2.68C112.656 2.68 112.492 2.64667 112.339 2.58C112.192 2.51333 112.062 2.42333 111.949 2.31C111.836 2.19 111.746 2.05667 111.679 1.91C111.612 1.75667 111.579 1.59333 111.579 1.42C111.579 1.24667 111.612 1.08333 111.679 0.929999C111.746 0.77 111.836 0.633333 111.949 0.519999C112.062 0.4 112.192 0.306667 112.339 0.239999C112.492 0.173333 112.656 0.139999 112.829 0.139999C113.002 0.139999 113.166 0.173333 113.319 0.239999C113.479 0.306667 113.616 0.4 113.729 0.519999C113.849 0.633333 113.942 0.77 114.009 0.929999C114.082 1.08333 114.119 1.24667 114.119 1.42Z" fill="#003E7C"/>
<path d="M118.344 6.07C118.564 5.82333 118.797 5.6 119.044 5.4C119.29 5.2 119.55 5.03 119.824 4.89C120.104 4.74333 120.397 4.63333 120.704 4.56C121.017 4.48 121.354 4.44 121.714 4.44C122.267 4.44 122.754 4.53333 123.174 4.72C123.6 4.9 123.954 5.16 124.234 5.5C124.52 5.83333 124.737 6.23667 124.884 6.71C125.03 7.18333 125.104 7.70667 125.104 8.28V14.73H123.314V8.28C123.314 7.51333 123.137 6.92 122.784 6.5C122.437 6.07333 121.907 5.86 121.194 5.86C120.667 5.86 120.174 5.98667 119.714 6.24C119.26 6.49333 118.84 6.83667 118.454 7.27V14.73H116.664V4.6H117.734C117.987 4.6 118.144 4.72333 118.204 4.97L118.344 6.07Z" fill="#003E7C"/>
<path d="M128.32 14.73V6.12L127.2 5.99C127.06 5.95667 126.943 5.90667 126.85 5.84C126.763 5.76667 126.72 5.66333 126.72 5.53V4.8H128.32V3.82C128.32 3.24 128.4 2.72667 128.56 2.28C128.727 1.82667 128.96 1.44667 129.26 1.14C129.567 0.826667 129.933 0.59 130.36 0.43C130.787 0.27 131.267 0.189999 131.8 0.189999C132.253 0.189999 132.67 0.256666 133.05 0.39L133.01 1.28C132.997 1.44 132.907 1.52667 132.74 1.54C132.58 1.55333 132.363 1.56 132.09 1.56C131.783 1.56 131.503 1.6 131.25 1.68C131.003 1.76 130.79 1.89 130.61 2.07C130.43 2.25 130.29 2.48667 130.19 2.78C130.097 3.07333 130.05 3.43667 130.05 3.87V4.8H132.97V6.09H130.11V14.73H128.32Z" fill="#003E7C"/>
<path d="M138.61 4.44C139.35 4.44 140.016 4.56333 140.61 4.81C141.203 5.05667 141.71 5.40667 142.13 5.86C142.55 6.31333 142.87 6.86333 143.09 7.51C143.316 8.15 143.43 8.86667 143.43 9.66C143.43 10.46 143.316 11.18 143.09 11.82C142.87 12.46 142.55 13.0067 142.13 13.46C141.71 13.9133 141.203 14.2633 140.61 14.51C140.016 14.75 139.35 14.87 138.61 14.87C137.863 14.87 137.19 14.75 136.59 14.51C135.996 14.2633 135.49 13.9133 135.07 13.46C134.65 13.0067 134.326 12.46 134.1 11.82C133.88 11.18 133.77 10.46 133.77 9.66C133.77 8.86667 133.88 8.15 134.1 7.51C134.326 6.86333 134.65 6.31333 135.07 5.86C135.49 5.40667 135.996 5.05667 136.59 4.81C137.19 4.56333 137.863 4.44 138.61 4.44ZM138.61 13.48C139.61 13.48 140.356 13.1467 140.85 12.48C141.343 11.8067 141.59 10.87 141.59 9.67C141.59 8.46333 141.343 7.52333 140.85 6.85C140.356 6.17667 139.61 5.84 138.61 5.84C138.103 5.84 137.66 5.92667 137.28 6.1C136.906 6.27333 136.593 6.52333 136.34 6.85C136.093 7.17667 135.906 7.58 135.78 8.06C135.66 8.53333 135.6 9.07 135.6 9.67C135.6 10.87 135.846 11.8067 136.34 12.48C136.84 13.1467 137.596 13.48 138.61 13.48Z" fill="#003E7C"/>
<path d="M154.827 6.51C154.567 6.45 154.281 6.42 153.967 6.42C153.467 6.42 153.007 6.52667 152.587 6.74C152.174 6.94667 151.817 7.22 151.517 7.56C151.217 7.9 150.981 8.29 150.807 8.73C150.641 9.17 150.557 9.62 150.557 10.08C150.557 10.56 150.667 10.9467 150.887 11.24C151.107 11.5267 151.434 11.67 151.867 11.67C152.074 11.67 152.281 11.6367 152.487 11.57C152.701 11.5033 152.904 11.3867 153.097 11.22C153.297 11.0533 153.481 10.8267 153.647 10.54C153.814 10.2533 153.954 9.89333 154.067 9.46L154.827 6.51ZM155.447 9.3C155.314 9.80667 155.251 10.22 155.257 10.54C155.264 10.8533 155.314 11.1 155.407 11.28C155.507 11.46 155.644 11.5833 155.817 11.65C155.991 11.71 156.181 11.74 156.387 11.74C156.714 11.74 157.024 11.6467 157.317 11.46C157.611 11.2733 157.867 11.01 158.087 10.67C158.314 10.33 158.491 9.92333 158.617 9.45C158.751 8.97 158.817 8.44 158.817 7.86C158.817 6.94 158.671 6.13333 158.377 5.44C158.084 4.74667 157.677 4.17 157.157 3.71C156.644 3.24333 156.034 2.89667 155.327 2.67C154.627 2.43667 153.871 2.32 153.057 2.32C152.164 2.32 151.327 2.49 150.547 2.83C149.767 3.17 149.087 3.64 148.507 4.24C147.927 4.84 147.467 5.55 147.127 6.37C146.794 7.19 146.627 8.08333 146.627 9.05C146.627 10.1833 146.804 11.18 147.157 12.04C147.517 12.8933 148.004 13.61 148.617 14.19C149.237 14.77 149.964 15.2067 150.797 15.5C151.631 15.7933 152.524 15.94 153.477 15.94C154.491 15.94 155.384 15.83 156.157 15.61C156.937 15.39 157.611 15.11 158.177 14.77C158.311 14.69 158.427 14.6667 158.527 14.7C158.627 14.7267 158.701 14.8 158.747 14.92L159.007 15.58C158.287 16.06 157.471 16.4367 156.557 16.71C155.651 16.9833 154.624 17.12 153.477 17.12C152.317 17.12 151.241 16.9367 150.247 16.57C149.254 16.2033 148.391 15.6733 147.657 14.98C146.931 14.2933 146.357 13.45 145.937 12.45C145.524 11.45 145.317 10.3167 145.317 9.05C145.317 8.32333 145.407 7.62333 145.587 6.95C145.774 6.27667 146.034 5.65 146.367 5.07C146.701 4.48333 147.101 3.95 147.567 3.47C148.034 2.98333 148.554 2.57 149.127 2.23C149.701 1.88333 150.317 1.61667 150.977 1.43C151.644 1.23667 152.337 1.14 153.057 1.14C153.671 1.14 154.271 1.20667 154.857 1.34C155.444 1.47333 155.997 1.67 156.517 1.93C157.044 2.19 157.524 2.51333 157.957 2.9C158.397 3.28 158.777 3.72 159.097 4.22C159.417 4.71333 159.664 5.26667 159.837 5.88C160.017 6.48667 160.107 7.14667 160.107 7.86C160.107 8.58 160.004 9.24667 159.797 9.86C159.597 10.4667 159.317 10.9933 158.957 11.44C158.604 11.8867 158.184 12.2367 157.697 12.49C157.211 12.7433 156.687 12.87 156.127 12.87C155.621 12.87 155.201 12.7467 154.867 12.5C154.541 12.2467 154.331 11.8633 154.237 11.35C153.857 11.8833 153.441 12.2667 152.987 12.5C152.534 12.7333 152.044 12.85 151.517 12.85C151.124 12.85 150.777 12.7833 150.477 12.65C150.184 12.51 149.941 12.32 149.747 12.08C149.554 11.8333 149.407 11.5433 149.307 11.21C149.214 10.8767 149.167 10.5167 149.167 10.13C149.167 9.56333 149.274 8.99333 149.487 8.42C149.707 7.84 150.031 7.32 150.457 6.86C150.884 6.39333 151.414 6.01333 152.047 5.72C152.681 5.42667 153.414 5.28 154.247 5.28C154.694 5.28 155.087 5.31667 155.427 5.39C155.767 5.45667 156.087 5.55667 156.387 5.69L155.447 9.3Z" fill="#003E7C"/>
<path d="M165.955 9.78C166.315 9.78 166.632 9.73 166.905 9.63C167.179 9.53 167.409 9.39 167.595 9.21C167.782 9.03 167.922 8.81667 168.015 8.57C168.109 8.31667 168.155 8.04 168.155 7.74C168.155 7.12 167.965 6.62667 167.585 6.26C167.212 5.89333 166.669 5.71 165.955 5.71C165.235 5.71 164.685 5.89333 164.305 6.26C163.932 6.62667 163.745 7.12 163.745 7.74C163.745 8.04 163.792 8.31667 163.885 8.57C163.985 8.81667 164.129 9.03 164.315 9.21C164.502 9.39 164.732 9.53 165.005 9.63C165.279 9.73 165.595 9.78 165.955 9.78ZM169.165 15.28C169.165 15.0333 169.095 14.8333 168.955 14.68C168.815 14.5267 168.625 14.4067 168.385 14.32C168.152 14.2333 167.879 14.1733 167.565 14.14C167.252 14.1 166.919 14.07 166.565 14.05C166.219 14.03 165.865 14.01 165.505 13.99C165.145 13.97 164.799 13.9367 164.465 13.89C164.092 14.0633 163.785 14.2833 163.545 14.55C163.312 14.81 163.195 15.1167 163.195 15.47C163.195 15.6967 163.252 15.9067 163.365 16.1C163.485 16.3 163.665 16.47 163.905 16.61C164.145 16.7567 164.445 16.87 164.805 16.95C165.172 17.0367 165.602 17.08 166.095 17.08C166.575 17.08 167.005 17.0367 167.385 16.95C167.765 16.8633 168.085 16.74 168.345 16.58C168.612 16.42 168.815 16.23 168.955 16.01C169.095 15.79 169.165 15.5467 169.165 15.28ZM170.975 5V5.66C170.975 5.88 170.835 6.02 170.555 6.08L169.405 6.23C169.632 6.67 169.745 7.15667 169.745 7.69C169.745 8.18333 169.649 8.63333 169.455 9.04C169.269 9.44 169.009 9.78333 168.675 10.07C168.342 10.3567 167.942 10.5767 167.475 10.73C167.009 10.8833 166.502 10.96 165.955 10.96C165.482 10.96 165.035 10.9033 164.615 10.79C164.402 10.9233 164.239 11.0667 164.125 11.22C164.012 11.3667 163.955 11.5167 163.955 11.67C163.955 11.91 164.052 12.0933 164.245 12.22C164.445 12.34 164.705 12.4267 165.025 12.48C165.345 12.5333 165.709 12.5667 166.115 12.58C166.529 12.5933 166.949 12.6167 167.375 12.65C167.809 12.6767 168.229 12.7267 168.635 12.8C169.049 12.8733 169.415 12.9933 169.735 13.16C170.055 13.3267 170.312 13.5567 170.505 13.85C170.705 14.1433 170.805 14.5233 170.805 14.99C170.805 15.4233 170.695 15.8433 170.475 16.25C170.262 16.6567 169.952 17.0167 169.545 17.33C169.139 17.65 168.639 17.9033 168.045 18.09C167.459 18.2833 166.795 18.38 166.055 18.38C165.315 18.38 164.669 18.3067 164.115 18.16C163.562 18.0133 163.102 17.8167 162.735 17.57C162.369 17.3233 162.092 17.0367 161.905 16.71C161.725 16.39 161.635 16.0533 161.635 15.7C161.635 15.2 161.792 14.7767 162.105 14.43C162.419 14.0833 162.849 13.8067 163.395 13.6C163.095 13.4667 162.855 13.29 162.675 13.07C162.502 12.8433 162.415 12.54 162.415 12.16C162.415 12.0133 162.442 11.8633 162.495 11.71C162.549 11.55 162.629 11.3933 162.735 11.24C162.849 11.08 162.985 10.93 163.145 10.79C163.305 10.65 163.492 10.5267 163.705 10.42C163.205 10.14 162.815 9.77 162.535 9.31C162.255 8.84333 162.115 8.30333 162.115 7.69C162.115 7.19667 162.209 6.75 162.395 6.35C162.589 5.94333 162.855 5.6 163.195 5.32C163.535 5.03333 163.939 4.81333 164.405 4.66C164.879 4.50667 165.395 4.43 165.955 4.43C166.395 4.43 166.805 4.48 167.185 4.58C167.565 4.67333 167.912 4.81333 168.225 5H170.975Z" fill="#003E7C"/>
<path d="M172.816 14.73V4.6H173.886C174.139 4.6 174.296 4.72333 174.356 4.97L174.486 6.01C174.859 5.55 175.279 5.17333 175.746 4.88C176.213 4.58667 176.753 4.44 177.366 4.44C178.046 4.44 178.596 4.63 179.016 5.01C179.443 5.39 179.749 5.90333 179.936 6.55C180.083 6.18333 180.269 5.86667 180.496 5.6C180.729 5.33333 180.989 5.11333 181.276 4.94C181.563 4.76667 181.866 4.64 182.186 4.56C182.513 4.48 182.843 4.44 183.176 4.44C183.709 4.44 184.183 4.52667 184.596 4.7C185.016 4.86667 185.369 5.11333 185.656 5.44C185.949 5.76667 186.173 6.17 186.326 6.65C186.479 7.12333 186.556 7.66667 186.556 8.28V14.73H184.766V8.28C184.766 7.48667 184.593 6.88667 184.246 6.48C183.899 6.06667 183.399 5.86 182.746 5.86C182.453 5.86 182.173 5.91333 181.906 6.02C181.646 6.12 181.416 6.27 181.216 6.47C181.016 6.67 180.856 6.92333 180.736 7.23C180.623 7.53 180.566 7.88 180.566 8.28V14.73H178.776V8.28C178.776 7.46667 178.613 6.86 178.286 6.46C177.959 6.06 177.483 5.86 176.856 5.86C176.416 5.86 176.009 5.98 175.636 6.22C175.263 6.45333 174.919 6.77333 174.606 7.18V14.73H172.816Z" fill="#003E7C"/>
<path d="M194.751 10.17C193.931 10.1967 193.231 10.2633 192.651 10.37C192.078 10.47 191.608 10.6033 191.241 10.77C190.881 10.9367 190.618 11.1333 190.451 11.36C190.291 11.5867 190.211 11.84 190.211 12.12C190.211 12.3867 190.255 12.6167 190.341 12.81C190.428 13.0033 190.545 13.1633 190.691 13.29C190.845 13.41 191.021 13.5 191.221 13.56C191.428 13.6133 191.648 13.64 191.881 13.64C192.195 13.64 192.481 13.61 192.741 13.55C193.001 13.4833 193.245 13.39 193.471 13.27C193.705 13.15 193.925 13.0067 194.131 12.84C194.345 12.6733 194.551 12.4833 194.751 12.27V10.17ZM189.001 6.03C189.561 5.49 190.165 5.08667 190.811 4.82C191.458 4.55333 192.175 4.42 192.961 4.42C193.528 4.42 194.031 4.51333 194.471 4.7C194.911 4.88667 195.281 5.14667 195.581 5.48C195.881 5.81333 196.108 6.21667 196.261 6.69C196.415 7.16333 196.491 7.68333 196.491 8.25V14.73H195.701C195.528 14.73 195.395 14.7033 195.301 14.65C195.208 14.59 195.135 14.4767 195.081 14.31L194.881 13.35C194.615 13.5967 194.355 13.8167 194.101 14.01C193.848 14.1967 193.581 14.3567 193.301 14.49C193.021 14.6167 192.721 14.7133 192.401 14.78C192.088 14.8533 191.738 14.89 191.351 14.89C190.958 14.89 190.588 14.8367 190.241 14.73C189.895 14.6167 189.591 14.45 189.331 14.23C189.078 14.01 188.875 13.7333 188.721 13.4C188.575 13.06 188.501 12.66 188.501 12.2C188.501 11.8 188.611 11.4167 188.831 11.05C189.051 10.6767 189.408 10.3467 189.901 10.06C190.395 9.77333 191.038 9.54 191.831 9.36C192.625 9.17333 193.598 9.06667 194.751 9.04V8.25C194.751 7.46333 194.581 6.87 194.241 6.47C193.901 6.06333 193.405 5.86 192.751 5.86C192.311 5.86 191.941 5.91667 191.641 6.03C191.348 6.13667 191.091 6.26 190.871 6.4C190.658 6.53333 190.471 6.65667 190.311 6.77C190.158 6.87667 190.005 6.93 189.851 6.93C189.731 6.93 189.628 6.9 189.541 6.84C189.455 6.77333 189.381 6.69333 189.321 6.6L189.001 6.03Z" fill="#003E7C"/>
<path d="M201.083 4.6V14.73H199.303V4.6H201.083ZM201.463 1.42C201.463 1.59333 201.426 1.75667 201.353 1.91C201.286 2.05667 201.193 2.19 201.073 2.31C200.959 2.42333 200.823 2.51333 200.663 2.58C200.509 2.64667 200.346 2.68 200.173 2.68C199.999 2.68 199.836 2.64667 199.683 2.58C199.536 2.51333 199.406 2.42333 199.293 2.31C199.179 2.19 199.089 2.05667 199.023 1.91C198.956 1.75667 198.923 1.59333 198.923 1.42C198.923 1.24667 198.956 1.08333 199.023 0.929999C199.089 0.77 199.179 0.633333 199.293 0.519999C199.406 0.4 199.536 0.306667 199.683 0.239999C199.836 0.173333 199.999 0.139999 200.173 0.139999C200.346 0.139999 200.509 0.173333 200.663 0.239999C200.823 0.306667 200.959 0.4 201.073 0.519999C201.193 0.633333 201.286 0.77 201.353 0.929999C201.426 1.08333 201.463 1.24667 201.463 1.42Z" fill="#003E7C"/>
<path d="M205.848 0V14.73H204.068V0H205.848Z" fill="#003E7C"/>
<path d="M208.434 13.63C208.434 13.4567 208.464 13.2933 208.524 13.14C208.591 12.9867 208.677 12.8533 208.784 12.74C208.897 12.6267 209.031 12.5367 209.184 12.47C209.337 12.4033 209.501 12.37 209.674 12.37C209.847 12.37 210.011 12.4033 210.164 12.47C210.317 12.5367 210.451 12.6267 210.564 12.74C210.677 12.8533 210.767 12.9867 210.834 13.14C210.901 13.2933 210.934 13.4567 210.934 13.63C210.934 13.81 210.901 13.9767 210.834 14.13C210.767 14.2767 210.677 14.4067 210.564 14.52C210.451 14.6333 210.317 14.72 210.164 14.78C210.011 14.8467 209.847 14.88 209.674 14.88C209.501 14.88 209.337 14.8467 209.184 14.78C209.031 14.72 208.897 14.6333 208.784 14.52C208.677 14.4067 208.591 14.2767 208.524 14.13C208.464 13.9767 208.434 13.81 208.434 13.63Z" fill="#003E7C"/>
<path d="M220.511 6.4C220.457 6.47333 220.404 6.53 220.351 6.57C220.297 6.61 220.224 6.63 220.131 6.63C220.031 6.63 219.921 6.59 219.801 6.51C219.681 6.42333 219.531 6.33 219.351 6.23C219.177 6.13 218.961 6.04 218.701 5.96C218.447 5.87333 218.134 5.83 217.761 5.83C217.261 5.83 216.821 5.92 216.441 6.1C216.061 6.27333 215.741 6.52667 215.481 6.86C215.227 7.19333 215.034 7.59667 214.901 8.07C214.774 8.54333 214.711 9.07333 214.711 9.66C214.711 10.2733 214.781 10.82 214.921 11.3C215.061 11.7733 215.257 12.1733 215.511 12.5C215.771 12.82 216.081 13.0667 216.441 13.24C216.807 13.4067 217.217 13.49 217.671 13.49C218.104 13.49 218.461 13.44 218.741 13.34C219.021 13.2333 219.251 13.1167 219.431 12.99C219.617 12.8633 219.771 12.75 219.891 12.65C220.017 12.5433 220.141 12.49 220.261 12.49C220.407 12.49 220.521 12.5467 220.601 12.66L221.101 13.31C220.881 13.5833 220.631 13.8167 220.351 14.01C220.071 14.2033 219.767 14.3667 219.441 14.5C219.121 14.6267 218.784 14.72 218.431 14.78C218.077 14.84 217.717 14.87 217.351 14.87C216.717 14.87 216.127 14.7533 215.581 14.52C215.041 14.2867 214.571 13.95 214.171 13.51C213.771 13.0633 213.457 12.5167 213.231 11.87C213.004 11.2233 212.891 10.4867 212.891 9.66C212.891 8.90667 212.994 8.21 213.201 7.57C213.414 6.93 213.721 6.38 214.121 5.92C214.527 5.45333 215.024 5.09 215.611 4.83C216.204 4.57 216.884 4.44 217.651 4.44C218.364 4.44 218.991 4.55667 219.531 4.79C220.077 5.01667 220.561 5.34 220.981 5.76L220.511 6.4Z" fill="#003E7C"/>
<path d="M227.106 4.44C227.846 4.44 228.512 4.56333 229.106 4.81C229.699 5.05667 230.206 5.40667 230.626 5.86C231.046 6.31333 231.366 6.86333 231.586 7.51C231.812 8.15 231.926 8.86667 231.926 9.66C231.926 10.46 231.812 11.18 231.586 11.82C231.366 12.46 231.046 13.0067 230.626 13.46C230.206 13.9133 229.699 14.2633 229.106 14.51C228.512 14.75 227.846 14.87 227.106 14.87C226.359 14.87 225.686 14.75 225.086 14.51C224.492 14.2633 223.986 13.9133 223.566 13.46C223.146 13.0067 222.822 12.46 222.596 11.82C222.376 11.18 222.266 10.46 222.266 9.66C222.266 8.86667 222.376 8.15 222.596 7.51C222.822 6.86333 223.146 6.31333 223.566 5.86C223.986 5.40667 224.492 5.05667 225.086 4.81C225.686 4.56333 226.359 4.44 227.106 4.44ZM227.106 13.48C228.106 13.48 228.852 13.1467 229.346 12.48C229.839 11.8067 230.086 10.87 230.086 9.67C230.086 8.46333 229.839 7.52333 229.346 6.85C228.852 6.17667 228.106 5.84 227.106 5.84C226.599 5.84 226.156 5.92667 225.776 6.1C225.402 6.27333 225.089 6.52333 224.836 6.85C224.589 7.17667 224.402 7.58 224.276 8.06C224.156 8.53333 224.096 9.07 224.096 9.67C224.096 10.87 224.342 11.8067 224.836 12.48C225.336 13.1467 226.092 13.48 227.106 13.48Z" fill="#003E7C"/>
<path d="M234.183 14.73V4.6H235.253C235.507 4.6 235.663 4.72333 235.723 4.97L235.853 6.01C236.227 5.55 236.647 5.17333 237.113 4.88C237.58 4.58667 238.12 4.44 238.733 4.44C239.413 4.44 239.963 4.63 240.383 5.01C240.81 5.39 241.117 5.90333 241.303 6.55C241.45 6.18333 241.637 5.86667 241.863 5.6C242.097 5.33333 242.357 5.11333 242.643 4.94C242.93 4.76667 243.233 4.64 243.553 4.56C243.88 4.48 244.21 4.44 244.543 4.44C245.077 4.44 245.55 4.52667 245.963 4.7C246.383 4.86667 246.737 5.11333 247.023 5.44C247.317 5.76667 247.54 6.17 247.693 6.65C247.847 7.12333 247.923 7.66667 247.923 8.28V14.73H246.133V8.28C246.133 7.48667 245.96 6.88667 245.613 6.48C245.267 6.06667 244.767 5.86 244.113 5.86C243.82 5.86 243.54 5.91333 243.273 6.02C243.013 6.12 242.783 6.27 242.583 6.47C242.383 6.67 242.223 6.92333 242.103 7.23C241.99 7.53 241.933 7.88 241.933 8.28V14.73H240.143V8.28C240.143 7.46667 239.98 6.86 239.653 6.46C239.327 6.06 238.85 5.86 238.223 5.86C237.783 5.86 237.377 5.98 237.003 6.22C236.63 6.45333 236.287 6.77333 235.973 7.18V14.73H234.183Z" fill="#003E7C"/>
</svg>
